<?xml version="1.0" encoding="UTF-8"?>
<svg id="Camada_1" data-name="Camada 1" xmlns="http://www.w3.org/2000/svg" viewBox="0 0 1168.45 306">
  <defs>
    <style>
      .cls-1, .cls-2, .cls-3, .cls-4, .cls-5, .cls-6, .cls-7, .cls-8, .cls-9 {
        stroke: #000;
      }

      .cls-1, .cls-2, .cls-3, .cls-4, .cls-5, .cls-6, .cls-7, .cls-8, .cls-9, .cls-10 {
        stroke-miterlimit: 10;
      }

      .cls-1, .cls-6 {
        fill: none;
      }

      .cls-11, .cls-2, .cls-4 {
        fill: #fff;
      }

      .cls-12, .cls-8 {
        fill: #76c63f;
      }

      .cls-2, .cls-5, .cls-7 {
        stroke-width: 4px;
      }

      .cls-3 {
        fill: #ff5521;
      }

      .cls-3, .cls-4, .cls-6, .cls-8 {
        stroke-width: 2px;
      }

      .cls-5 {
        fill: #ffd145;
      }

      .cls-7 {
        fill: #d4ff8c;
      }

      .cls-9 {
        fill: #bcff78;
      }

      .cls-10 {
        fill: #77c63f;
        stroke: #76c63f;
        stroke-width: 3px;
      }
    </style>
  </defs>
  <path d="M1106.64,267l-1072.66,1c-18.2,0-32.96-21.76-32.96-39.96v-101.89c0-18.2,14.76-39.15,32.96-39.15l1072.66-1c18.2,0,32.96,20.95,32.96,39.15v101.89c0,18.2-14.76,39.96-32.96,39.96Z"/>
  <g>
    <g>
      <polygon class="cls-11" points="1066.06 124.96 1098.54 172.52 1092.17 175.5 1064.69 136.07 1066.06 124.96"/>
      <path class="cls-12" d="M1129.55,66.63l30.51,33.04-21.36,14.56c-5.41,3.87-10,8.76-13.53,14.39l-17.04,27.14c-3.5,4-7.48,7.55-11.85,10.57l-.81.56-29.42-41.92,14.13-11.04c12.34-21.03,16.85-33.25,29.87-41.42l11.09-4.65,8.41-1.22Z"/>
      <path class="cls-12" d="M1089.01,170.6l11.05-7.19c2.39-1.5,4.46-3.48,6.07-5.8l5.95-9.72,16.65-25.12c4.61-5.34,9.96-9.99,15.89-13.82l15.44-9.28-1.09,8.88-11.63,6.22c-4.11,2.89-7.78,6.36-10.9,10.3l-14.28,20.28-5.7,8.97c-2.38,3.75-7.8,11.07-11.36,13.73l-12.93,7.43-3.16-4.89Z"/>
      <path class="cls-9" d="M1122.2,71.37l-5.63,3.07c-7.13,3.69-9.7,5.57-15.7,11.6l-5.53,8.34c-1.12,1.74-5.53,11.68-7.92,15.56-2.17,3.53-3.87,7.04-8.02,10.29l-4.15,3.25-1.28,4.35,19.68,29.46,5.18.64,6.09-7.28c.63-.75,1.23-1.52,1.79-2.32.9-1.31,7.62-11.83,8.44-13.19l6.12-10.53c4-6.1,6.78-8.93,15.27-15.37l12.01-7.57,1.38-5.09-20.4-23.54-7.31-1.65Z"/>
      <path class="cls-4" d="M1090.86,94.2c5.8-9.45,2.58-2.69,3.6-4.82.64-1.35,5.96-18.84-8.74-26.26-11.6-5.85-16.38-10.18-19.32-9-2.5,1-1.84,8.76,4.23,16.13,2.71,3.29,8.79,6.51,8.87,6.18.14-.54-7.24-3.01-14.13-7.14-6.3-3.78-1.19,6.52,1.87,9.25,3.15,2.81,11.27,7.86,11.31,8.32.05.53-15.59-9.74-11.21-3.05,6.96,10.62,15.12,8.93,13.81,9.96-.83.65-12.13-5.24-8.97-.35,1.08,1.67,8.16,7.01,15,6.35,1.66-.16-.99,2.07,3.69-5.56Z"/>
      <path class="cls-6" d="M1129.99,66.1c9.07,9.75,20.87,24.52,30.42,33.78l-1.17,9.54c-12.74,3.15-26.53,19.97-33.62,30.73-10.08,15.5-14.63,29.31-33.84,35.46l-27.47-39.43,1.57-12.83c12.2-5.41,17.5-11.9,22.56-24.03,9.61-18.65,19.56-30.67,41.56-33.22Z"/>
      <path class="cls-4" d="M1093.98,90.23c-.19-.2-.51-.18-.68.04l-.83,1.12c-1.01,1.37-2.73,4.26-3.29,5.86l.47.36,32.55,34.79,4.61-6.95-32.83-35.23Z"/>
      <path class="cls-4" d="M1123.23,130.47c.92-1.39,2.86-4.91,3.69-5.56,1.31-1.03,15.21-.34,24.06,3.06,13.97,5.36,16.11,14.39,16.22,17.66.5,14.34.22,19.15-.68,21.06-1.01,2.13-9.52-3.24-11.86-7.46-2.06-3.72-4.34-10.22-4-10.26.55-.06,3.37,13.02,1.89,15.26-.92,1.39-4.44-.54-7.87-3.22-3.33-2.59-4.02-12.46-4.47-12.57-.52-.12,2.99,12.39-.62,11.19-8.07-2.67-8.31-14.77-9.47-14.68-.98.07,3.57,7.82,1.22,8.41-1.92.48-6.4-6.15-7.9-12.34-.49-2.03-2.05-7.76-1.13-9.15s-.9,1.35.92-1.39Z"/>
    </g>
    <path class="cls-1" d="M1159.65,100l-7.23,3.86c-5.6,2.9-10.81,6.49-15.51,10.68l-3,2.68c-4.22,3.77-7.85,8.16-10.75,13.01l-9.33,15.62-6.07,9.55c-2.13,3.36-4.92,6.25-8.19,8.51l-4.09,2.98-29.33-42.66"/>
  </g>
  <polygon class="cls-12" points="168.5 118.25 159.59 108.48 57.82 108.66 48.58 118.87 48.78 227.21 59.35 238.81 158.17 238.92 168.15 226.91 168.09 192.91 126.09 192.98 126.12 210.98 92.12 211.05 92.08 186.05 127.12 185.74 127.03 162.98 92.03 163.05 91.99 137.05 125.99 136.98 126.02 155.98 169.02 155.9 168.5 118.25"/>
  <polyline class="cls-12" points="221.2 168.9 220.93 142.9 254.93 142.54 255.13 161.54 298.13 161.09 297.28 123.44 288.29 113.75 203.37 114.5 179.64 140.75 180.51 223.74 201.73 244.52 287.99 244.2 298.61 232.51 298.21 194.51 255.22 194.96 255.7 216.54 221.7 216.9 221.44 191.9"/>
  <polyline class="cls-12" points="353 162.28 353 136.28 387 136.28 387.06 193 429.06 193 429.06 121 413.06 108 326.06 108 310.06 122 310.06 223 327.06 238 412.06 238 429.06 223 429 192.28 387 192.28 387 210.28 353 210.28 353 185.28"/>
  <path class="cls-7" d="M696.06,127l1.68-17.63c.19-1.95-1.06-3.74-2.95-4.24l-75.78-20.25c-1.67-.45-3.43.28-4.3,1.78l-10.65,18.35-16.91,1.39c-1.63.13-2.99,1.27-3.41,2.85l-20.45,76.38c-.4,1.5.16,3.08,1.42,3.99l14.35,10.4.04,18.14c0,1.64,1.1,3.08,2.68,3.52l74.79,20.84c1.54.43,3.18-.17,4.09-1.48l10.39-15.03,17.17-3.25c1.44-.27,2.59-1.34,2.97-2.75l20.71-77.36c.34-1.26-.09-2.59-1.09-3.42l-14.75-12.22ZM659.23,194.74l-19,13.32-27.2-8.29-8.27-20.31,12.31-44.46,19.73-13.53,26.19,8.02,8.27,19.31-12.02,45.94Z"/>
  <path class="cls-10" d="M628.13,193l1.9-7.1c-4.06-1.16-7.94-3.56-9.93-5.98l2.95-4.26c2.08,2.37,5.38,4.68,9.31,5.74,4.99,1.34,9.14-.64,10.21-4.65s-1.07-6.99-5.7-10.5c-6.42-4.73-9.98-9.16-8.34-15.27s6.9-9.15,13.65-8.48l1.9-7.1,4.36,1.17-1.83,6.82c4.18,1.27,6.76,3.17,8.48,4.91l-3,4.17c-1.25-1.24-3.72-3.56-8.22-4.76-5.41-1.45-8.32,1.24-9.07,4.05-.98,3.66,1.13,6.18,6.57,10.35,6.45,4.89,9.13,9.53,7.45,15.79-1.49,5.55-6.75,9.72-14.31,8.98l-1.96,7.31-4.43-1.19Z"/>
  <g>
    <polyline class="cls-11" points="760.6 151.79 759.8 137.81 789.73 135.79 790.81 151.73 833.71 148.83 830.99 115.28 821.46 106.12 736.73 111.69 714.26 135.25 717.39 179.76 740.55 196.24 794.43 192.61 795.04 216.62 819.87 243.01 826.7 235.59 838.55 222.71 835.39 175.81 807.31 160.67 780.37 162.48 761.41 163.76"/>
    <polyline class="cls-11" points="785.68 245.32 819.87 243.01 795.04 216.62 764.11 218.71 763.2 205.18 719.18 208.15 721.15 235.63 737.06 248.59"/>
  </g>
  <polygon class="cls-4" points="852.06 236.91 861.89 246.74 891.8 246.74 901.17 237.37 901.17 122 891.86 108.69 862.06 108.69 852.9 121.84 852.06 236.91"/>
  <polygon class="cls-12" points="439.83 130.38 440.06 235.85 457.08 246.34 482.85 246.17 482.64 148.17 516.64 148.1 516.85 246.1 542.08 246.16 559.82 236.01 558.83 129.13 542.8 116.16 455.8 116.35 439.83 130.38"/>
  <polygon class="cls-2" points="919.54 115.19 910.4 220.76 919.39 232.61 955.33 235.37 963.82 139.96 983.69 141.73 975.21 237.14 1022.12 241.31 1030.61 145.9 1050.48 147.67 1042 243.08 1079.76 246.87 1089.61 237.7 1099.33 125.57 1085.02 108.47 1023.2 102.97 1007.03 116.5 993.87 100.78 939.68 95.96 919.54 115.19"/>
  <polygon class="cls-3" points="296.06 213 373.06 291 412.56 246.5 457.56 287.5 467.06 276 412.06 222 373.06 266 307.06 201 296.06 213"/>
  <polygon class="cls-8" points="823.64 139.57 875.64 83.57 915.56 121.5 981.14 60.07 993.56 74.5 916.64 149.57 876.64 109.57 835.64 151.57 823.64 139.57"/>
  <g>
    <path class="cls-5" d="M39.56,39.5C12.56,39.5,1.06,72.1,2.06,99c.91,24.47,9.5,51.5,37.5,51.5,26,0,39.2-30.6,39-56-.19-25.21-12-55-39-55Z"/>
    <path class="cls-1" d="M43.56,40.5c-10,2-29,18-29,53,0,42,19,56,27,56"/>
  </g>
  <g>
    <path class="cls-5" d="M716.06,217c-12,0-21,12-21,44s10,43,21,43c14,0,21-14,21-46,0-27-9-41-21-41Z"/>
    <path class="cls-1" d="M713.06,218c9,2,13,28,13,42,0,18-4,39-11,43"/>
  </g>
</svg>